<svg xmlns="http://www.w3.org/2000/svg" viewBox="0 0 300 300"><path fill="#88171a" d="M150.14 0C8.66 0 4.24 139.63 4.24 139.63S-16.57 300 153.4 300c163.02 0 149.78-154.44 149.78-154.44S310.12 0 150.14 0zm-46.52 94.7c30.02-18.36 68.37-7.14 82.74 20.48 2.72 5.23 3.07 13.29 1.34 18.78-5.95 18.96-20.01 29.59-39.31 34.1 5.69-4.87 10.22-10.39 11.66-18.02a26.4 26.4 0 0 0-4.54-20.96 26.76 26.76 0 0 0-30.81-9.39c-11.88 4.51-18.39 15.35-17.22 28.68 1.09 12.38 10.48 20.41 28.06 23.45-2.63 1.39-4.65 2.41-6.63 3.52a63.92 63.92 0 0 0-20.54 17.87c-1.78 2.41-3.01 2.6-5.73.94-35.34-21.61-37.61-75.84.98-99.45zm-26.45 133.53c-5.68 1.44-11.18 3.57-16.98 5.48 2.84-19.15 25.27-36.79 44.23-34.78a48.88 48.88 0 0 0-9.24 25.89c-6.3 1.16-12.24 1.94-18.01 3.41zm120.79-186.98c5.61.21 11.23.12 16.84.25a29.05 29.05 0 0 1 4.17.58 40.61 40.61 0 0 1-4.24 5.43c-2.01 1.87-4.27 3.7-7.17.86-.7-.68-2.34-.53-3.55-.54-5.58-.07-11.17-.25-16.75-.04a104.04 104.04 0 0 0-14.42 1.47c-.89.16-2.23 3.13-1.82 4.23.97 2.59 2.38 5.44 4.48 7.09 7.74 6.11 15.97 11.6 23.75 17.66 7.56 5.9 14.59 12.36 18.87 21.25 5.59 11.59 5.75 23.74 3.34 35.95-4.02 20.38-14.33 37.26-31.03 49.52-6.73 4.94-15.06 7.75-22.77 11.3-6.78 3.12-13.75 5.81-20.55 8.9-12.25 5.57-19.13 18.86-17.11 32.69 1.86 12.68 12.99 23.27 25.74 25.46 15.29 2.62 31.07-7.32 34.81-22.86 4.21-17.48-5.29-33.08-23.06-37.81-.78-.21-1.57-.41-3.2-.83 4.75-2.12 8.86-3.64 12.65-5.72q9.92-5.46 19.48-11.56c1.87-1.2 2.89-1.2 4.49.18 12.22 10.57 19.52 23.72 21.56 39.84 3.38 26.68-9.25 51.2-33.07 63.76-36.86 19.44-81.97-2.69-90.11-43.55-6.97-35 17.73-66.75 47.46-72.88 12.79-2.64 24.48-7.96 33.57-17.81 5.87-6.35 8.71-11.81 9.68-14.27a39.57 39.57 0 0 0 2.72-14.47 33.87 33.87 0 0 0-2.97-12.4c-3.1-7.07-15-18.33-17.94-20.7l-28-21.92c-.99-.81-2.1-.75-4.51-.59-2.86.19-10.17.6-13.33-.23 2.55-1.93 9.51-4.75 12.5-7.01-9.07-6.13-19.43-3.92-28.94-5.75 2.2-4.1 13.08-10.39 19.27-11.09a91.53 91.53 0 0 0-1.69-10.28c-.38-1.39-1.93-2.74-3.29-3.54-3.29-1.93-6.77-3.52-10.55-5.43a21.94 21.94 0 0 1 11.33-3.51 42.32 42.32 0 0 1 11.35 1.11c6.74 1.54 12.12.53 17.49-4.05-4.22-1.7-8.44-3.25-12.54-5.09a123.04 123.04 0 0 1-11.78-6.16c10.62 1.48 20.9 5.46 31.76 4q.14-.74.28-1.48c-8.12-1.89-16.24-3.78-25.23-5.87 15.04-1.38 29.04-1.6 42.3 4.85 3.73 1.82 7.63 3.32 11.21 5.4 1.74 1.01 2.92 3.01 4.35 4.56 1.14 1.23 2.05 2.88 3.45 3.63 5.3 2.82 11.13 2.93 17.08 2.79.04-.68.09-1.31.13-1.99 5.98 1.87 12.71 8.77 12.7 13.81-9.69 0-19.37-.04-29.06.05-1.03.01-2.06.77-3.09 1.18.98.57 1.94 1.6 2.94 1.64z"/><path fill="#88171a" d="M183.78 26.91a1.48 1.48 0 0 0-.19 2.37 2.23 2.23 0 0 0 3.07.82c.93-.47 1.85-.97 2.98-1.57-.91-.77-1.64-1.41-2.39-2.03-1.32-1.09-2.41-.4-3.47.41z"/></svg>
